
<svg style="position: absolute; width: 0; height: 0;" width="0" height="0" version="1.1" xmlns="http://www.w3.org/2000/svg" xmlns:xlink="http://www.w3.org/1999/xlink">
    <defs>
        <symbol id="icon-bulb" viewBox="0 0 1024 1024">
            <title>bulb</title>
            <path class="path1" d="M512 0c-194.432 0-352 157.568-352 352 0 128.992 118.016 265.696 160.992 385.76 64.096 179.040 56.992 286.24 191.008 286.24 136 0 126.88-106.688 191.008-285.504 43.104-120.32 160.992-258.496 160.992-386.496 0-194.432-157.632-352-352-352zM594.944 869.632l-158.656 19.808c-5.664-16.384-11.744-35.552-19.136-60.576-0.096-0.32-0.224-0.672-0.288-0.992l198.016-24.736c-2.816 9.44-5.824 19.36-8.448 28.256-4.192 14.368-7.936 26.848-11.488 38.24zM407.552 797.056c-5.824-19.264-12.384-39.552-19.68-61.056h248.512c-3.936 11.488-7.872 23.008-11.264 33.888l-217.568 27.168zM512 960c-32.416 0-47.328-3.744-63.904-40l135.616-16.992c-19.648 52.928-33.952 56.992-71.712 56.992zM661.504 672h-298.656c-15.936-34.56-35.072-69.12-53.952-102.944-41.76-74.72-84.896-152-84.896-217.056 0-158.816 129.184-288 288-288s288 129.184 288 288c0 64.576-43.2 142.272-84.992 217.44-18.688 33.696-37.696 68.192-53.504 102.56zM512 160c8.8 0 16 7.168 16 16s-7.168 16-16 16c-88.224 0-160 71.776-160 160 0 8.832-7.168 16-16 16s-16-7.168-16-16c0-105.888 86.112-192 192-192z"></path>
        </symbol>
        <symbol id="icon-diamond" viewBox="0 0 1024 1024">
            <title>diamond</title>
            <path class="path1" d="M1005.248 309.664l-162.56-162.592c-12-12-28.32-18.752-45.248-18.752h-570.848c-16.96 0-33.248 6.752-45.248 18.752l-162.56 162.592c-12.576 12.544-18.848 29.088-18.784 45.664 0.096 15.040 5.472 30.048 16.192 42.112l447.968 477.056c12.16 13.696 29.568 21.504 47.84 21.504s35.68-7.808 47.808-21.504l448-477.056c10.944-12.32 16.32-27.744 16.192-43.136-0.128-16.192-6.432-32.32-18.752-44.64zM583.008 352.32h-142.048l71.040-59.168 71.008 59.168zM537.024 272.32l87.424-72.896 64.576 64.576-81.024 67.488-70.976-59.168zM416 331.488l-81.024-67.488 64.576-64.576 87.456 72.896-71.008 59.168zM591.68 384.32l-79.68 398.496-79.68-398.496h159.36zM624.32 384.32h156.992l-235.488 392.608 78.496-392.608zM632.928 352.32l78.816-65.632 65.632 65.632h-144.448zM662.624 192.32h112.384l-61.312 51.104-51.072-51.104zM512 251.52l-71.040-59.2h142.016l-70.976 59.2zM310.272 243.424l-61.312-51.104h112.416l-51.104 51.104zM312.256 286.688l78.784 65.632h-144.416l65.632-65.632zM399.68 384.32l78.496 392.608-235.52-392.608h157.024zM406.528 719.616l-314.88-335.296h113.728l201.152 335.296zM818.624 384.32h113.76l-314.944 335.36 201.184-335.36zM822.624 352.32l-86.176-86.176 73.504-61.28 147.424 147.456h-134.752zM213.952 204.8l73.632 61.344-86.208 86.176h-137.184l149.76-147.52z"></path>
        </symbol>
        <symbol id="icon-display" viewBox="0 0 1024 1024">
            <title>display</title>
            <path class="path1" d="M864 159.872l-704 0.128c-17.696 0-32 14.176-32 31.872v448c0 17.696 14.304 32 32 32h704c17.696 0 32-14.304 32-32v-448c0-17.696-14.304-32-32-32zM864 640h-704v-448.128h704v448.128zM928 32h-832c-53.024 0-96 42.944-96 96v640c0 52.928 42.816 95.808 95.68 95.936h320.32v38.944l-199.744 25.952c-14.272 3.552-24.256 16.352-24.256 31.040 0 17.696 14.304 32 32 32h576c17.696 0 32-14.304 32-32 0-14.688-9.984-27.488-24.256-31.072l-199.744-25.92v-38.944h320.32c52.864-0.128 95.68-43.008 95.68-95.936v-640c0-53.056-43.008-96-96-96zM960 768c0 17.632-14.368 32-32 32h-832c-17.664 0-32-14.368-32-32v-640c0-17.664 14.336-32 32-32h832c17.632 0 32 14.336 32 32v640z"></path>
        </symbol>
        <symbol id="icon-eye" viewBox="0 0 1024 1024">
            <title>eye</title>
            <path class="path1" d="M1022.88 504.832c-0.32-1.344-0.128-2.784-0.64-4.096-0.192-0.544-0.672-0.832-0.864-1.344-0.32-0.768-0.256-1.632-0.672-2.368-92.8-177.632-294.816-304.896-507.936-304.896-213.152 0-415.136 127.072-508 304.672-0.416 0.736-0.352 1.6-0.672 2.368-0.224 0.512-0.672 0.8-0.864 1.344-0.512 1.312-0.32 2.752-0.64 4.096-0.576 2.4-1.12 4.704-1.12 7.168s0.576 4.736 1.12 7.168c0.32 1.344 0.128 2.784 0.64 4.096 0.192 0.544 0.672 0.832 0.864 1.344 0.32 0.768 0.256 1.632 0.672 2.368 92.832 177.632 294.848 304.896 508 304.896 213.12 0 415.136-127.072 507.936-304.672 0.448-0.736 0.384-1.6 0.672-2.368 0.192-0.512 0.672-0.8 0.864-1.344 0.512-1.312 0.32-2.752 0.64-4.096 0.544-2.432 1.12-4.736 1.12-7.168s-0.576-4.768-1.12-7.168zM512.736 767.616c-179.68 0-355.584-102.112-443.232-255.84 88.128-153.92 263.776-255.68 443.232-255.68 179.616 0 355.552 102.144 443.2 255.84-88.128 153.952-263.744 255.68-443.2 255.68zM512.736 383.968c8.832 0 15.936 7.136 15.936 16 0 8.8-7.136 15.968-15.936 15.968v0.032c-52.928 0-95.968 43.040-95.968 95.904 0 8.832-7.168 16-15.968 16-8.832 0-16-7.168-16-16 0-70.56 57.184-127.744 127.744-127.872 0.064 0 0.128-0.032 0.192-0.032zM512 288c-123.744 0-224 100.288-224 224s100.288 224 224 224c123.68 0 224-100.32 224-224 0-123.744-100.32-224-224-224zM512 704c-105.888 0-192-86.112-192-192s86.112-192 192-192c105.888 0 192 86.112 192 192s-86.112 192-192 192z"></path>
        </symbol>
        <symbol id="icon-bubble" viewBox="0 0 1024 1024">
            <title>bubble</title>
            <path class="path1" d="M512 224c8.832 0 16 7.168 16 16s-7.2 16-16 16c-170.464 0-320 89.728-320 192 0 8.832-7.168 16-16 16s-16-7.168-16-16c0-121.408 161.184-224 352-224zM512 64c-282.784 0-512 171.936-512 384 0 132.064 88.928 248.512 224.256 317.632 0 0.864-0.256 1.44-0.256 2.368 0 57.376-42.848 119.136-61.696 151.552 0.032 0 0.064 0 0.064 0-1.504 3.52-2.368 7.392-2.368 11.456 0 16 12.96 28.992 28.992 28.992 3.008 0 8.288-0.8 8.16-0.448 100-16.384 194.208-108.256 216.096-134.88 31.968 4.704 64.928 7.328 98.752 7.328 282.72 0 512-171.936 512-384s-229.248-384-512-384zM512 768c-29.344 0-59.456-2.24-89.472-6.624-3.104-0.512-6.208-0.672-9.28-0.672-19.008 0-37.216 8.448-49.472 23.36-13.696 16.672-52.672 53.888-98.72 81.248 12.48-28.64 22.24-60.736 22.912-93.824 0.192-2.048 0.288-4.128 0.288-5.888 0-24.064-13.472-46.048-34.88-56.992-118.592-60.544-189.376-157.984-189.376-260.608 0-176.448 200.96-320 448-320 246.976 0 448 143.552 448 320s-200.992 320-448 320z"></path>
        </symbol>
        <symbol id="icon-paperplane" viewBox="0 0 1024 1024">
            <title>paperplane</title>
            <path class="path1" d="M1009.376 5.12c-5.312-3.424-11.36-5.12-17.376-5.12-6.176 0-12.384 1.76-17.76 5.376l-960 640c-9.888 6.56-15.328 18.112-14.048 29.952 1.216 11.808 8.896 22.016 19.936 26.368l250.368 100.192 117.728 206.016c5.632 9.888 16.096 16 27.424 16.128 0.128 0 0.224 0 0.352 0 11.232 0 21.664-5.952 27.424-15.552l66.464-110.816 310.24 124.064c3.808 1.536 7.808 2.272 11.872 2.272 5.44 0 10.816-1.376 15.68-4.128 8.448-4.736 14.24-13.056 15.872-22.624l160-960c2.080-12.576-3.488-25.184-14.176-32.128zM100.352 664.864l741.6-494.432-539.2 577.184c-2.848-1.696-5.376-3.936-8.512-5.184l-193.888-77.568zM326.048 770.112c-0.064-0.128-0.16-0.192-0.224-0.32l606.176-648.8-516.768 805.184-89.184-156.064zM806.944 947.488l-273.312-109.312c-6.496-2.56-13.248-3.424-19.936-3.808l420.864-652.416-127.616 765.536z"></path>
        </symbol>
        <symbol id="icon-lab" viewBox="0 0 1024 1024">
            <title>lab</title>
            <path class="path1" d="M661.824 119.424c-15.136-15.104-35.2-23.424-56.576-23.424s-41.44 8.32-56.64 23.456l-45.12 45.184c-15.136 15.104-23.488 35.2-23.488 56.608 0 15.072 4.128 29.504 11.872 42.016l-434.464 174.048c-29.056 12.768-49.888 38.976-55.744 70.048-5.92 31.264 4 63.328 26.688 85.984l407.040 402.56c17.536 17.536 40.832 27.488 65.44 28.064 0.576 0.032 1.92 0.032 2.496 0.032 6.464 0 13.024-0.672 19.52-1.984 31.808-6.592 57.856-28.576 69.664-58.496l170.944-428.032c12.864 8.48 28 13.024 43.744 13.024 21.44 0 41.504-8.352 56.576-23.456l45.024-45.056c15.264-15.168 23.616-35.296 23.616-56.736s-8.384-41.6-23.424-56.576l-247.168-247.264zM533.088 939.744c-3.968 10.016-12.704 17.408-23.264 19.584-2.432 0.512-4.896 0.704-7.328 0.672-8.128-0.192-15.968-3.456-21.824-9.344l-407.296-402.816c-7.488-7.456-10.784-18.144-8.8-28.576 1.952-10.368 8.928-19.136 18.624-23.36l198.944-79.68c134.048 44.576 268.128 1.632 402.24 144.704l-151.296 378.816zM863.744 434.56l-45.248 45.216c-6.24 6.272-16.384 6.272-22.624 0l-56.576-56.544-45.824 114.848 3.808-9.696c-96.32-96.16-194.208-108.288-282.528-119.136-28.384-3.488-55.904-7.136-82.944-12.96l271.712-108.832-54.88-54.88c-6.24-6.24-6.24-16.384 0-22.624l45.248-45.28c6.24-6.24 16.384-6.24 22.624 0l247.2 247.264c6.336 6.24 6.336 16.384 0.032 22.624zM528 672c44.096 0 80-35.872 80-80s-35.872-80-80-80c-44.128 0-80 35.872-80 80s35.904 80 80 80zM528 544c26.496 0 48 21.504 48 48s-21.504 48-48 48c-26.528 0-48-21.504-48-48s21.472-48 48-48zM944 0c-44.128 0-80 35.872-80 80s35.872 80 80 80 80-35.872 80-80-35.872-80-80-80zM944 128c-26.496 0-48-21.504-48-48s21.504-48 48-48 48 21.504 48 48-21.504 48-48 48zM256 544c0 35.296 28.704 64 64 64s64-28.704 64-64-28.704-64-64-64-64 28.704-64 64zM320 512c17.664 0 32 14.304 32 32s-14.336 32-32 32-32-14.304-32-32 14.336-32 32-32zM384 736c0-17.673 14.327-32 32-32s32 14.327 32 32c0 17.673-14.327 32-32 32s-32-14.327-32-32zM896 256c0-17.673 14.327-32 32-32s32 14.327 32 32c0 17.673-14.327 32-32 32s-32-14.327-32-32z"></path>
        </symbol>
        <symbol id="icon-twitter" viewBox="0 0 1024 1024">
            <title>twitter</title>
            <path class="path1" d="M1024 194.418c-37.676 16.708-78.164 28.002-120.66 33.080 43.372-26 76.686-67.17 92.372-116.23-40.596 24.078-85.556 41.56-133.41 50.98-38.32-40.83-92.922-66.34-153.346-66.34-116.022 0-210.088 94.058-210.088 210.078 0 16.466 1.858 32.5 5.44 47.878-174.6-8.764-329.402-92.4-433.018-219.506-18.084 31.028-28.446 67.116-28.446 105.618 0 72.888 37.088 137.192 93.46 174.866-34.438-1.092-66.832-10.542-95.154-26.278-0.020 0.876-0.020 1.756-0.020 2.642 0 101.788 72.418 186.696 168.522 206-17.626 4.8-36.188 7.372-55.348 7.372-13.538 0-26.698-1.32-39.528-3.772 26.736 83.46 104.32 144.206 196.252 145.896-71.9 56.35-162.486 89.934-260.916 89.934-16.958 0-33.68-0.994-50.116-2.94 92.972 59.61 203.402 94.394 322.042 94.394 386.422 0 597.736-320.124 597.736-597.744 0-9.108-0.206-18.168-0.61-27.18 41.056-29.62 76.672-66.62 104.836-108.748z"></path>
        </symbol>
        <symbol id="icon-github" viewBox="0 0 1024 1024">
            <title>github</title>
            <path class="path1" d="M512.008 12.642c-282.738 0-512.008 229.218-512.008 511.998 0 226.214 146.704 418.132 350.136 485.836 25.586 4.738 34.992-11.11 34.992-24.632 0-12.204-0.48-52.542-0.696-95.324-142.448 30.976-172.504-60.41-172.504-60.41-23.282-59.176-56.848-74.916-56.848-74.916-46.452-31.778 3.51-31.124 3.51-31.124 51.4 3.61 78.476 52.766 78.476 52.766 45.672 78.27 119.776 55.64 149.004 42.558 4.588-33.086 17.852-55.68 32.506-68.464-113.73-12.942-233.276-56.85-233.276-253.032 0-55.898 20.004-101.574 52.76-137.428-5.316-12.9-22.854-64.972 4.952-135.5 0 0 43.006-13.752 140.84 52.49 40.836-11.348 84.636-17.036 128.154-17.234 43.502 0.198 87.336 5.886 128.256 17.234 97.734-66.244 140.656-52.49 140.656-52.49 27.872 70.528 10.35 122.6 5.036 135.5 32.82 35.856 52.694 81.532 52.694 137.428 0 196.654-119.778 239.95-233.79 252.624 18.364 15.89 34.724 47.046 34.724 94.812 0 68.508-0.596 123.644-0.596 140.508 0 13.628 9.222 29.594 35.172 24.566 203.322-67.776 349.842-259.626 349.842-485.768 0-282.78-229.234-511.998-511.992-511.998z"></path>
        </symbol>
        <symbol id="icon-apple" viewBox="0 0 1024 1024">
            <title>apple</title>
            <path class="path1" d="M791.498 544.092c-1.294-129.682 105.758-191.876 110.542-194.966-60.152-88.020-153.85-100.078-187.242-101.472-79.742-8.074-155.596 46.948-196.066 46.948-40.368 0-102.818-45.754-168.952-44.552-86.916 1.292-167.058 50.538-211.812 128.38-90.304 156.698-23.126 388.84 64.89 515.926 43.008 62.204 94.292 132.076 161.626 129.58 64.842-2.588 89.362-41.958 167.756-41.958s100.428 41.958 169.050 40.67c69.774-1.296 113.982-63.398 156.692-125.796 49.39-72.168 69.726-142.038 70.924-145.626-1.548-0.706-136.060-52.236-137.408-207.134zM662.562 163.522c35.738-43.358 59.86-103.512 53.28-163.522-51.478 2.096-113.878 34.29-150.81 77.55-33.142 38.376-62.148 99.626-54.374 158.436 57.466 4.484 116.128-29.204 151.904-72.464z"></path>
        </symbol>
        <symbol id="icon-linkedin2" viewBox="0 0 1024 1024">
            <title>linkedin2</title>
            <path class="path1" d="M384 384h177.106v90.782h2.532c24.64-44.194 84.958-90.782 174.842-90.782 186.946 0 221.52 116.376 221.52 267.734v308.266h-184.61v-273.278c0-65.184-1.334-149.026-96.028-149.026-96.148 0-110.82 70.986-110.82 144.292v278.012h-184.542v-576z"></path>
            <path class="path2" d="M64 384h192v576h-192v-576z"></path>
            <path class="path3" d="M256 224c0 53.019-42.981 96-96 96s-96-42.981-96-96c0-53.019 42.981-96 96-96s96 42.981 96 96z"></path>
        </symbol>
        <symbol id="icon-file-pdf" viewBox="0 0 1024 1024">
            <title>file-pdf</title>
            <path class="path1" d="M842.012 589.48c-13.648-13.446-43.914-20.566-89.972-21.172-31.178-0.344-68.702 2.402-108.17 7.928-17.674-10.198-35.892-21.294-50.188-34.658-38.462-35.916-70.568-85.772-90.576-140.594 1.304-5.12 2.414-9.62 3.448-14.212 0 0 21.666-123.060 15.932-164.666-0.792-5.706-1.276-7.362-2.808-11.796l-1.882-4.834c-5.894-13.592-17.448-27.994-35.564-27.208l-10.916-0.344c-20.202 0-36.664 10.332-40.986 25.774-13.138 48.434 0.418 120.892 24.98 214.738l-6.288 15.286c-17.588 42.876-39.63 86.060-59.078 124.158l-2.528 4.954c-20.46 40.040-39.026 74.028-55.856 102.822l-17.376 9.188c-1.264 0.668-31.044 16.418-38.028 20.644-59.256 35.38-98.524 75.542-105.038 107.416-2.072 10.17-0.53 23.186 10.014 29.212l16.806 8.458c7.292 3.652 14.978 5.502 22.854 5.502 42.206 0 91.202-52.572 158.698-170.366 77.93-25.37 166.652-46.458 244.412-58.090 59.258 33.368 132.142 56.544 178.142 56.544 8.168 0 15.212-0.78 20.932-2.294 8.822-2.336 16.258-7.368 20.792-14.194 8.926-13.432 10.734-31.932 8.312-50.876-0.72-5.622-5.21-12.574-10.068-17.32zM211.646 814.048c7.698-21.042 38.16-62.644 83.206-99.556 2.832-2.296 9.808-8.832 16.194-14.902-47.104 75.124-78.648 105.066-99.4 114.458zM478.434 199.686c13.566 0 21.284 34.194 21.924 66.254s-6.858 54.56-16.158 71.208c-7.702-24.648-11.426-63.5-11.426-88.904 0 0-0.566-48.558 5.66-48.558v0zM398.852 637.494c9.45-16.916 19.282-34.756 29.33-53.678 24.492-46.316 39.958-82.556 51.478-112.346 22.91 41.684 51.444 77.12 84.984 105.512 4.186 3.542 8.62 7.102 13.276 10.65-68.21 13.496-127.164 29.91-179.068 49.862v0zM828.902 633.652c-4.152 2.598-16.052 4.1-23.708 4.1-24.708 0-55.272-11.294-98.126-29.666 16.468-1.218 31.562-1.838 45.102-1.838 24.782 0 32.12-0.108 56.35 6.072 24.228 6.18 24.538 18.734 20.382 21.332v0z"></path>
            <path class="path2" d="M917.806 229.076c-22.21-30.292-53.174-65.7-87.178-99.704s-69.412-64.964-99.704-87.178c-51.574-37.82-76.592-42.194-90.924-42.194h-496c-44.112 0-80 35.888-80 80v864c0 44.112 35.886 80 80 80h736c44.112 0 80-35.888 80-80v-624c0-14.332-4.372-39.35-42.194-90.924v0zM785.374 174.626c30.7 30.7 54.8 58.398 72.58 81.374h-153.954v-153.946c22.982 17.78 50.678 41.878 81.374 72.572v0zM896 944c0 8.672-7.328 16-16 16h-736c-8.672 0-16-7.328-16-16v-864c0-8.672 7.328-16 16-16 0 0 495.956-0.002 496 0v224c0 17.672 14.324 32 32 32h224v624z"></path>
        </symbol>
        <symbol id="icon-html5" viewBox="0 0 1024 1024">
            <title>html5</title>
            <path class="path1" d="M60.538 0l82.144 921.63 368.756 102.37 369.724-102.524 82.3-921.476h-902.924zM784.63 301.428h-432.54l10.302 115.75h411.968l-31.042 347.010-231.844 64.254-231.572-64.254-15.83-177.512h113.494l8.048 90.232 125.862 33.916 0.278-0.078 125.934-33.992 13.070-146.55h-391.74l-30.494-341.8h566.214l-10.108 113.024z"></path>
        </symbol>
        <symbol id="icon-codepen" viewBox="0 0 1024 1024">
            <title>codepen</title>
            <path class="path1" d="M945.75 368.042l-448-298.666c-10.748-7.166-24.752-7.166-35.5 0l-448 298.666c-8.902 5.934-14.25 15.926-14.25 26.624v298.666c0 10.7 5.348 20.692 14.25 26.624l448 298.666c5.374 3.584 11.562 5.376 17.75 5.376s12.376-1.792 17.75-5.376l448-298.666c8.902-5.934 14.25-15.926 14.25-26.624v-298.666c0-10.698-5.348-20.69-14.25-26.624zM480 654.876l-166.312-110.876 166.312-110.874 166.312 110.874-166.312 110.876zM512 377.542v-221.75l358.31 238.876-166.31 110.874-192-128zM448 377.542l-192 128-166.312-110.874 358.312-238.876v221.75zM198.312 544l-134.312 89.542v-179.082l134.312 89.54zM256 582.458l192 128v221.748l-358.312-238.872 166.312-110.876zM512 710.458l192-128 166.312 110.876-358.312 238.874v-221.75zM761.688 544l134.312-89.54v179.084l-134.312-89.544z"></path>
        </symbol>
        <symbol id="icon-git-branch" viewBox="0 0 640 1024">
            <title>git-branch</title>
            <path class="path1" d="M512 192c-71 0-128 57-128 128 0 47 26 88 64 110v18c0 64-64 128-128 128-53 0-95 11-128 29v-303c38-22 64-63 64-110 0-71-57-128-128-128s-128 57-128 128c0 47 26 88 64 110v419c-38 22-64 63-64 110 0 71 57 128 128 128s128-57 128-128c0-34-13-64-34-87 19-23 49-41 98-41 128 0 256-128 256-256v-18c38-22 64-63 64-110 0-71-57-128-128-128zM128 128c35 0 64 29 64 64s-29 64-64 64-64-29-64-64 29-64 64-64zM128 896c-35 0-64-29-64-64s29-64 64-64 64 29 64 64-29 64-64 64zM512 384c-35 0-64-29-64-64s29-64 64-64 64 29 64 64-29 64-64 64z"></path>
        </symbol>
        <symbol id="icon-star" viewBox="0 0 896 1024">
            <title>star</title>
            <path class="path1" d="M896 384l-313.5-40.781-134.5-279.219-134.531 279.219-313.469 40.781 230.469 208.875-59.469 303.063 277-148.812 277.062 148.812-59.562-303.063 230.5-208.875z"></path>
        </symbol>
        <symbol id="icon-heart" viewBox="0 0 1024 1024">
            <title>heart</title>
            <path class="path1" d="M755.188 64c-107.63 0-200.258 87.554-243.164 179-42.938-91.444-135.578-179-243.216-179-148.382 0-268.808 120.44-268.808 268.832 0 301.846 304.5 380.994 512.022 679.418 196.154-296.576 511.978-387.206 511.978-679.418 0-148.392-120.43-268.832-268.812-268.832z"></path>
        </symbol>
        <symbol id="icon-android" viewBox="0 0 1024 1024">
            <title>android</title>
            <path  class="path1" d="M281.714 276q9.143 0 15.714-6.571t6.571-15.714-6.571-15.714-15.714-6.571-15.429 6.571-6.286 15.714 6.286 15.714 15.429 6.571zM522.857 276q9.143 0 15.429-6.571t6.286-15.714-6.286-15.714-15.429-6.571-15.714 6.571-6.571 15.714 6.571 15.714 15.714 6.571zM58.857 381.143q24 0 41.143 17.143t17.143 41.143v245.714q0 24.571-16.857 41.714t-41.429 17.143-41.714-17.143-17.143-41.714v-245.714q0-24 17.143-41.143t41.714-17.143zM664.571 392v380.571q0 26.286-18.286 44.571t-44 18.286h-42.857v129.714q0 24.571-17.143 41.714t-41.714 17.143-41.714-17.143-17.143-41.714v-129.714h-78.857v129.714q0 24.571-17.143 41.714t-41.714 17.143q-24 0-41.143-17.143t-17.143-41.714l-0.571-129.714h-42.286q-26.286 0-44.571-18.286t-18.286-44.571v-380.571h524.571zM532 160.571q61.143 31.429 97.714 87.714t36.571 123.143h-528.571q0-66.857 36.571-123.143t98.286-87.714l-40.571-74.857q-4-7.429 2.857-11.429 7.429-3.429 11.429 3.429l41.143 75.429q54.286-24 114.857-24t114.857 24l41.143-75.429q4-6.857 11.429-3.429 6.857 4 2.857 11.429zM804.571 439.429v245.714q0 24.571-17.143 41.714t-41.714 17.143q-24 0-41.143-17.143t-17.143-41.714v-245.714q0-24.571 17.143-41.429t41.143-16.857q24.571 0 41.714 16.857t17.143 41.429z"></path>
        </symbol>
    </defs>
</svg>
